<svg xmlns="http://www.w3.org/2000/svg" width="40" height="42" viewBox="0 0 40 42">
    <g fill="#000" fill-rule="nonzero">
        <path d="M39.269 7.57h-1.377V5.505c0-.412-.275-.688-.688-.688h-4.129c-.413 0-.688.276-.688.688V7.57h-1.376c-.413 0-.688.275-.688.688v11.01h-.689v-2.064c0-.413-.275-.688-.688-.688h-.688v-.688c0-.413-.275-.688-.688-.688-.413 0-.688.275-.688.688v.688h-.688c-.413 0-.689.275-.689.688v2.065h-2.064V5.505c0-.412-.275-.688-.688-.688h-2.065V.688C20.688.275 20.413 0 20 0h-8.258c-.413 0-.688.275-.688.688v4.13H8.989c-.413 0-.688.274-.688.687v17.893H6.925v-2.065c0-.413-.275-.688-.688-.688h-4.13c-.412 0-.688.275-.688.688v2.065H.731c-.413 0-.688.275-.688.688v16.516c0 .413.275.688.688.688H39.27c.413 0 .688-.275.688-.688V8.258c0-.413-.275-.688-.688-.688zm-5.506-1.376h2.753V7.57h-2.753V6.194zm-6.881 11.698h1.376v1.377h-1.376v-1.377zM9.677 6.194h2.065c.413 0 .688-.276.688-.689V1.376h6.882v4.13c0 .412.275.688.688.688h2.064v13.075h-1.376V8.259c0-.414-.275-.69-.688-.69-.413 0-.688.276-.688.69v11.01h-1.377V8.259c0-.414-.275-.69-.688-.69-.413 0-.688.276-.688.69v11.01h-1.376V8.259c0-.414-.275-.69-.688-.69-.413 0-.689.276-.689.69v15.138H12.43V8.259c0-.413-.275-.688-.688-.688-.413 0-.688.275-.688.688v15.14H9.677V6.194zM2.796 22.022h2.752v1.376H2.796v-1.376zm-1.377 2.752h12.387v1.377H8.99c-.413 0-.688.275-.688.688v13.075H1.42v-15.14zm8.258 2.753h4.13v1.376h-2.065c-.413 0-.688.275-.688.688 0 .413.275.689.688.689h2.064v1.376h-2.064c-.413 0-.688.275-.688.688 0 .413.275.688.688.688h2.064v1.377h-2.064c-.413 0-.688.275-.688.688 0 .413.275.688.688.688h2.064v1.376h-2.064c-.413 0-.688.276-.688.688 0 .413.275.689.688.689h2.064v1.376H9.677V27.527zm5.506-.688v-6.193h15.14v19.268h-1.377V22.71c0-.413-.275-.688-.688-.688-.413 0-.688.275-.688.688v17.204h-1.376V22.71c0-.413-.276-.688-.689-.688-.412 0-.688.275-.688.688v17.204h-1.376V22.71c0-.413-.275-.688-.688-.688-.413 0-.688.275-.688.688v17.204h-1.377V22.71c0-.413-.275-.688-.688-.688-.413 0-.688.275-.688.688v17.204h-1.377V22.71c0-.413-.275-.688-.688-.688-.413 0-.688.275-.688.688v17.204h-1.376V26.839zM38.58 39.914h-6.882V8.947h6.882v30.967z"/>
        <path d="M33.763 26.839c-.412 0-.688.275-.688.688v1.376c0 .413.276.688.688.688.413 0 .689-.275.689-.688v-1.376c0-.413-.276-.688-.689-.688zM33.763 30.968c-.412 0-.688.275-.688.688v1.376c0 .413.276.688.688.688.413 0 .689-.275.689-.688v-1.376c0-.413-.276-.688-.689-.688zM33.763 35.097c-.412 0-.688.275-.688.688v1.376c0 .413.276.688.688.688.413 0 .689-.275.689-.688v-1.376c0-.413-.276-.688-.689-.688zM33.763 22.71c-.412 0-.688.275-.688.688v1.376c0 .413.276.688.688.688.413 0 .689-.275.689-.688v-1.376c0-.413-.276-.688-.689-.688zM33.763 10.323c-.412 0-.688.275-.688.688v1.376c0 .413.276.688.688.688.413 0 .689-.275.689-.688v-1.376c0-.413-.276-.688-.689-.688zM33.763 14.452c-.412 0-.688.275-.688.688v1.376c0 .413.276.688.688.688.413 0 .689-.275.689-.688V15.14c0-.413-.276-.688-.689-.688zM33.763 18.58c-.412 0-.688.276-.688.689v1.376c0 .413.276.688.688.688.413 0 .689-.275.689-.688V19.27c0-.413-.276-.688-.689-.688zM36.516 26.839c-.413 0-.688.275-.688.688v1.376c0 .413.275.688.688.688.413 0 .688-.275.688-.688v-1.376c0-.413-.275-.688-.688-.688zM36.516 35.097c-.413 0-.688.275-.688.688v1.376c0 .413.275.688.688.688.413 0 .688-.275.688-.688v-1.376c0-.413-.275-.688-.688-.688zM36.516 14.452c-.413 0-.688.275-.688.688v1.376c0 .413.275.688.688.688.413 0 .688-.275.688-.688V15.14c0-.413-.275-.688-.688-.688zM36.516 10.323c-.413 0-.688.275-.688.688v1.376c0 .413.275.688.688.688.413 0 .688-.275.688-.688v-1.376c0-.413-.275-.688-.688-.688zM36.516 22.71c-.413 0-.688.275-.688.688v1.376c0 .413.275.688.688.688.413 0 .688-.275.688-.688v-1.376c0-.413-.275-.688-.688-.688zM36.516 30.968c-.413 0-.688.275-.688.688v1.376c0 .413.275.688.688.688.413 0 .688-.275.688-.688v-1.376c0-.413-.275-.688-.688-.688zM36.516 18.58c-.413 0-.688.276-.688.689v1.376c0 .413.275.688.688.688.413 0 .688-.275.688-.688V19.27c0-.413-.275-.688-.688-.688zM3.484 34.409c-.413 0-.688.275-.688.688v1.376c0 .413.275.688.688.688.413 0 .688-.275.688-.688v-1.376c0-.413-.275-.688-.688-.688zM3.484 26.15c-.413 0-.688.276-.688.689v1.376c0 .413.275.688.688.688.413 0 .688-.275.688-.688V26.84c0-.413-.275-.688-.688-.688zM3.484 30.28c-.413 0-.688.275-.688.688v1.376c0 .413.275.688.688.688.413 0 .688-.275.688-.688v-1.376c0-.413-.275-.688-.688-.688zM6.237 30.28c-.413 0-.689.275-.689.688v1.376c0 .413.276.688.689.688.412 0 .688-.275.688-.688v-1.376c0-.413-.276-.688-.688-.688zM6.237 34.409c-.413 0-.689.275-.689.688v1.376c0 .413.276.688.689.688.412 0 .688-.275.688-.688v-1.376c0-.413-.276-.688-.688-.688zM6.237 26.15c-.413 0-.689.276-.689.689v1.376c0 .413.276.688.689.688.412 0 .688-.275.688-.688V26.84c0-.413-.276-.688-.688-.688zM14.495 6.194c.413 0 .688-.276.688-.689V3.441c0-.413-.275-.688-.688-.688-.413 0-.689.275-.689.688v2.064c0 .413.276.689.689.689zM17.247 6.194c.413 0 .688-.276.688-.689V3.441c0-.413-.275-.688-.688-.688-.413 0-.688.275-.688.688v2.064c0 .413.275.689.688.689z"/>
    </g>
</svg>
