<?xml version="1.0"?>
<svg xmlns="http://www.w3.org/2000/svg" xmlns:xlink="http://www.w3.org/1999/xlink" xmlns:svgjs="http://svgjs.com/svgjs" version="1.1" width="512" height="512" x="0" y="0" viewBox="0 0 512 512" style="enable-background:new 0 0 512 512" xml:space="preserve" class=""><g><link type="text/css" rel="stylesheet" id="dark-mode-custom-link"/><link type="text/css" rel="stylesheet" id="dark-mode-general-link"/><style lang="en" type="text/css" id="dark-mode-custom-style"/><style lang="en" type="text/css" id="dark-mode-native-style"/><g xmlns="http://www.w3.org/2000/svg"><path d="m328.257 344.503c-3.886 3.924-3.855 10.256.07 14.142s10.256 3.855 14.142-.069c3.886-3.925 3.855-10.256-.07-14.142s-10.256-3.856-14.142.069z" fill="#ffffff" data-original="#000000" style="" class=""/><path d="m107.191 275.234c3.913-3.913 3.913-10.258 0-14.171-3.913-3.912-10.258-3.912-14.171 0l-18.756 18.757c-3.913 3.913-3.913 10.258 0 14.171l46.279 46.279c1.957 1.956 4.521 2.935 7.085 2.935s5.129-.979 7.085-2.935c3.913-3.913 3.913-10.258 0-14.171l-16.493-16.493 10.182-10.181c3.913-3.913 3.914-10.258 0-14.171-3.913-3.911-10.257-3.912-14.17 0l-10.182 10.182-8.531-8.531z" fill="#ffffff" data-original="#000000" style="" class=""/><path d="m193.246 189.263c3.913-3.913 3.914-10.258 0-14.171-3.913-3.911-10.257-3.912-14.17 0l-19.465 19.464c-1.879 1.88-2.935 4.428-2.935 7.085 0 2.658 1.056 5.206 2.935 7.085l46.195 46.195c1.957 1.956 4.521 2.935 7.085 2.935s5.129-.979 7.085-2.935l19.464-19.464c3.913-3.913 3.913-10.258 0-14.171-3.913-3.912-10.258-3.912-14.171 0l-12.379 12.379-8.927-8.927 10.944-10.945c3.913-3.913 3.913-10.258 0-14.171-3.913-3.912-10.257-3.912-14.17 0l-10.944 10.945-8.927-8.927z" fill="#ffffff" data-original="#000000" style="" class=""/><path d="m239.085 143.424c3.913-3.913 3.913-10.258 0-14.171-3.913-3.912-10.257-3.912-14.17 0l-19.464 19.465c-3.913 3.913-3.913 10.258 0 14.171l46.195 46.195c1.879 1.879 4.428 2.935 7.085 2.935 2.658 0 5.206-1.056 7.085-2.935l19.465-19.465c3.913-3.913 3.913-10.258 0-14.171-3.913-3.912-10.257-3.912-14.17 0l-12.38 12.38-8.927-8.927 10.944-10.945c3.913-3.913 3.913-10.258 0-14.171-3.913-3.912-10.257-3.912-14.17 0l-10.944 10.945-8.927-8.927z" fill="#ffffff" data-original="#000000" style="" class=""/><path d="m166.761 304.413c2.564 0 5.129-.978 7.085-2.935 3.913-3.913 3.913-10.258-.001-14.171l-9.864-9.864 27.347 1.744c.217.014.432.021.647.021 5.243 0 9.651-4.076 9.99-9.382.352-5.523-3.839-10.285-9.362-10.637l-22.666-1.445c1.401-3.254 2.193-6.765 2.306-10.38.235-7.547-2.498-14.566-7.696-19.765-10.587-10.587-28.122-10.279-39.089.685l-12.389 12.389c-.003.003-.006.007-.01.011-.002.002-.004.003-.006.005-3.913 3.913-3.913 10.258 0 14.171l46.621 46.62c1.959 1.954 4.523 2.933 7.087 2.933zm-27.132-61.959c3.099-3.098 8.022-3.411 10.748-.685 1.681 1.68 1.872 3.835 1.837 4.97-.067 2.135-.986 4.241-2.524 5.778-1.259 1.259-3.236 3.251-5.239 5.272-1.951-1.933-8.057-8.017-10.105-10.052z" fill="#ffffff" data-original="#000000" style="" class=""/><path d="m381.522 248.576c2.013 0 4.037-.605 5.781-1.839.878-.62 1.318-.932 17.516-17.312 3.891-3.935 3.856-10.279-.079-14.17-3.934-3.892-10.28-3.857-14.17.079-3.058 3.092-6.282 6.343-9.015 9.086l-39.107-39.106c-3.913-3.912-10.257-3.912-14.17 0-3.913 3.913-3.913 10.258 0 14.171l46.156 46.155c1.939 1.941 4.505 2.936 7.088 2.936z" fill="#ffffff" data-original="#000000" style="" class=""/><path d="m297.972 332.201c2.564 0 5.129-.979 7.085-2.935 3.913-3.913 3.913-10.258 0-14.171l-46.195-46.194c-3.913-3.912-10.257-3.912-14.17 0-3.913 3.913-3.913 10.258 0 14.171l46.195 46.194c1.957 1.957 4.521 2.935 7.085 2.935z" fill="#ffffff" data-original="#000000" style="" class=""/><path d="m153.294 384.49c2.564 0 5.129-.978 7.085-2.935l5.619-5.619 39.109 39.109c1.957 1.956 4.521 2.935 7.085 2.935s5.129-.978 7.085-2.935c3.913-3.913 3.913-10.258 0-14.171l-39.109-39.109 5.722-5.722c3.913-3.913 3.913-10.258 0-14.171-3.913-3.912-10.258-3.912-14.171 0l-25.512 25.512c-3.913 3.913-3.913 10.258 0 14.171 1.958 1.957 4.523 2.935 7.087 2.935z" fill="#ffffff" data-original="#000000" style="" class=""/><path d="m271.368 358.814c5.243 0 9.651-4.076 9.99-9.382.352-5.523-3.839-10.285-9.362-10.637l-22.317-1.423c4.29-10.035 2.518-21.909-5.424-29.852-10.527-10.526-27.96-10.221-38.861.679l-12.275 12.277c-.005.005-.01.009-.015.014-3.913 3.913-3.913 10.258 0 14.171l46.195 46.194c1.957 1.956 4.521 2.935 7.085 2.935s5.129-.979 7.085-2.935c3.913-3.913 3.913-10.258 0-14.171l-9.603-9.603 26.856 1.712c.216.015.432.021.646.021zm-51.804-36.444c3.034-3.036 7.853-3.347 10.52-.679 2.667 2.666 2.356 7.485-.679 10.52-1.234 1.234-3.165 3.179-5.128 5.16-1.911-1.892-7.877-7.837-9.882-9.831z" fill="#ffffff" data-original="#000000" style="" class=""/><path d="m503.009 22.643c-11.989-11.987-31.495-11.987-43.483 0l-34.887 34.887-156.038-24.44c-3.161-.487-6.372.551-8.635 2.814l-257.031 257.031c-3.913 3.913-3.913 10.258 0 14.171l188.306 188.307c1.879 1.879 4.428 2.935 7.085 2.935 2.658 0 5.206-1.056 7.085-2.935l105.179-105.179c3.913-3.913 3.913-10.258 0-14.171-3.913-3.912-10.258-3.912-14.171 0l-98.094 98.094-174.135-174.137 246.343-246.344 136.568 21.391-18.392 18.393c-4.099-2.028-8.71-3.173-13.584-3.173-16.954 0-30.747 13.793-30.747 30.747s13.793 30.747 30.747 30.747 30.747-13.793 30.747-30.747c0-4.779-1.097-9.307-3.051-13.346l19.914-19.914 21.935 140.039-84.686 84.686c-3.913 3.913-3.914 10.258 0 14.171 3.913 3.912 10.258 3.912 14.171 0l88.288-88.288c2.264-2.264 3.31-5.473 2.814-8.636l-17.045-108.821 54.798-54.797c11.987-11.989 11.987-31.496-.001-43.485zm-127.884 109.098c-5.904 0-10.708-4.803-10.708-10.707s4.803-10.708 10.708-10.708c5.904 0 10.708 4.803 10.708 10.708 0 5.904-4.804 10.707-10.708 10.707zm113.714-79.784-44.466 44.465-4.101-26.184 33.424-33.424c4.175-4.175 10.969-4.174 15.143 0 4.175 4.175 4.175 10.968 0 15.143z" fill="#ffffff" data-original="#000000" style="" class=""/><g><path d="m321.305 308.644c-3.82 0-7.467-2.2-9.131-5.912l-28.142-62.766c-.033-.072-.064-.146-.096-.22-1.81-4.311-.846-9.235 2.456-12.546 3.301-3.312 8.223-4.289 12.541-2.492.092.038.184.078.275.119l62.61 28.302c5.033 2.275 7.268 8.199 4.993 13.231s-8.197 7.27-13.231 4.993l-42.085-19.024 18.93 42.221c2.259 5.039.006 10.956-5.034 13.216-1.329.595-2.719.878-4.086.878z" fill="#ffffff" data-original="#000000" style="" class=""/></g></g></g></svg>
