<svg id="Capa_1" enable-background="new 0 0 510 510" height="512" viewBox="0 0 510 510" width="512" xmlns="http://www.w3.org/2000/svg"><g id="XMLID_2179_"><path id="XMLID_2208_" d="m195 90h-45v150h30v-60h15c8.271 0 15 6.729 15 15v45h30v-45c0-11.517-4.354-22.032-11.495-30 7.142-7.968 11.495-18.483 11.495-30 0-24.813-20.187-45-45-45zm-15 60v-30h15c8.271 0 15 6.729 15 15s-6.729 15-15 15z"/><path id="XMLID_2214_" d="m135 420h30v-60h15c8.271 0 15 6.729 15 15v45h30v-45c0-11.517-4.354-22.032-11.495-30 7.142-7.968 11.495-18.483 11.495-30 0-24.813-20.187-45-45-45h-45zm30-120h15c8.271 0 15 6.729 15 15s-6.729 15-15 15h-15z"/><path id="XMLID_2215_" d="m255 270h30v150h-30z"/><path id="XMLID_2216_" d="m435 270v150h60v-30h-30v-120z"/><path id="XMLID_2219_" d="m315 315v105h30v-45h30v45h30v-105c0-24.813-20.187-45-45-45s-45 20.187-45 45zm60 0v30h-30v-30c0-8.271 6.729-15 15-15s15 6.729 15 15z"/><path id="XMLID_2220_" d="m15 300h30v120h30v-120h30v-30h-90z"/><path id="XMLID_2221_" d="m120 120v-30h-75v150h30v-60h30v-30h-30v-30z"/><path id="XMLID_2222_" d="m270 240h75v-30h-45v-30h30v-30h-30v-30h45v-30h-75z"/><path id="XMLID_2223_" d="m375 240h75v-30h-45v-30h30v-30h-30v-30h45v-30h-75z"/><path id="XMLID_2224_" d="m0 30h510v30h-510z"/><path id="XMLID_2225_" d="m0 450h510v30h-510z"/></g></svg>